<svg xmlns="http://www.w3.org/2000/svg" viewBox="0 0 320 240">
<defs><linearGradient id="g" x1="0" y1="0" x2="1" y2="1"><stop stop-color="#dff8d6"/><stop offset="1" stop-color="#8bd8a0"/></linearGradient></defs>
<circle cx="160" cy="118" r="94" fill="url(#g)"/><ellipse cx="160" cy="205" rx="95" ry="12" fill="#7fa48f" opacity=".25"/>
<path d="M86 170Q160 112 234 170" fill="none" stroke="#fff" stroke-width="8"/>
<path d="M137 52L205 165" stroke="#d89b55" stroke-width="22" stroke-linecap="round"/><path d="M137 52L205 165" stroke="#f6c776" stroke-width="13" stroke-linecap="round"/><path d="M128 48L146 37" stroke="#744c2c" stroke-width="7" stroke-linecap="round"/>
<circle cx="92" cy="91" r="20" fill="#d94c4c"/><path d="M82 83q12 8 20 0M81 99q12-8 21 0" fill="none" stroke="#fff" stroke-width="3"/>
<circle cx="241" cy="84" r="16" fill="#fff"/><circle cx="241" cy="84" r="7" fill="#5a8f64"/>
<path d="M136 184q24-24 48 0" fill="none" stroke="#3e6348" stroke-width="5" stroke-linecap="round"/>
<circle cx="145" cy="169" r="4"/><circle cx="175" cy="169" r="4"/></svg>